PathFileType	4	(X/Y/Z)	C:\Users\°ÂÌØÂü\Desktop\20210112\bx_y_5_902-Unnamed.trc
DataRate	CameraRate	NumFrames	NumMarkers	Units	OrigDataRate	OrigDataStartFrame	OrigNumFrames
50.00	50.00	       5	0	mm	50.00	132	       525
Frame#	Time	
		

132	2.620	-238.21432	118.34646	1564.87903	-471.94247	283.78033	1365.57190				-735.79584	-6.45740	800.80396	-799.04657	284.43845	867.34882				-830.77148	253.18224	624.11792	-818.55743	247.69348	565.45538	-755.48468	206.51711	535.17950	-843.37952	259.15192	487.40051	-518.05945	-73.21474	142.63290	-780.44336	144.68219	568.98291	-604.55658	18.23204	168.56131	-829.73926	283.36319	734.56055	-776.02740	227.53960	201.21466	-596.74902	224.59486	174.60884	-882.58307	295.85147	144.48090	-563.00165	261.28775	166.15135	-666.33929	300.55103	158.59943	-628.73175	308.62115	161.16426	-528.03210	303.86176	146.20628	-447.42670	-62.13381	1357.43726	-944.10840	96.04104	1070.51904	-773.73920	-9.71373	201.63747	-797.14978	53.16116	171.81749	-799.32861	176.68367	181.50488	-835.75391	-37.49424	474.00888	-665.87042	-69.17928	160.87769	-875.73853	-78.83031	141.37350	-811.12823	-60.85184	694.28461	-803.93207	-30.59183	608.16180	-806.60419	-27.30610	559.69763	-719.23804	157.42725	220.74913	-562.98560	-39.31063	164.34439	-676.17078	175.31126	161.83278	-624.48273	-79.33966	158.94981	-804.73071	-69.49713	847.89856	-725.67310	73.08066	220.34763	-740.33179	215.47490	818.72412	-746.92712	15.88974	524.63147										-676.17450	53.56651	163.60335	
133	2.640	-227.24197	116.91995	1544.45349	-463.72150	282.89032	1350.60461				-740.39551	-7.34544	799.83380	-804.45508	284.48145	866.57050				-834.17706	253.07986	623.37994	-821.23767	247.36078	565.14337	-758.19482	206.07849	534.90704	-845.61029	258.77271	486.46350	-517.81061	-72.87587	142.85547	-783.30621	144.98396	568.19757	-604.53088	17.94783	168.83800	-834.24707	283.14883	734.06769	-776.01385	227.61882	201.00110	-596.50928	224.33414	174.61780	-882.51855	295.82053	144.50360	-563.14050	261.25705	166.16301	-666.36346	300.72589	158.31618	-628.83746	308.50983	160.85471	-528.00482	303.92819	146.22273	-438.28732	-62.54076	1339.92224	-947.16168	95.28322	1071.44006	-774.25952	-10.02223	201.13278	-797.26013	52.96091	171.62473	-799.45612	176.75035	181.39755	-838.54907	-38.23782	473.45480	-666.15381	-69.20108	160.51332	-876.20093	-79.02077	141.43263	-815.24438	-61.52507	692.73633	-807.98682	-31.50854	607.29242	-809.84534	-27.54251	559.12769	-719.71924	157.80379	220.75151	-563.01373	-38.94522	164.44252	-676.48029	175.55293	161.79005	-624.48273	-79.33966	158.94981	-809.58997	-69.97406	846.46570	-726.01855	72.66994	220.35654	-745.03760	215.50113	818.29297	-749.72974	15.54164	524.66486										-676.68707	53.15654	163.52872	
134	2.660	-217.00409	115.68844	1523.84277	-456.09744	282.10318	1335.42468	-785.76263	144.82874	567.92493	-744.36871	-8.25379	799.32843	-809.00281	284.42905	865.81946				-837.31683	252.03320	622.23877	-823.46503	247.24469	564.64368	-760.58716	205.68492	534.37134	-847.28571	258.65250	485.88678	-517.93347	-73.04156	142.67648				-604.54779	17.96096	168.92334	-838.56909	283.72275	733.32263	-776.44763	227.59489	200.99113	-596.72369	224.40529	174.44122	-882.65472	295.74988	144.41527	-563.05762	260.73050	166.01598	-666.37646	300.63153	158.50659	-628.73529	308.44696	160.86751	-528.08331	303.94214	146.39098	-430.22958	-61.91840	1321.93787	-950.80426	94.13789	1073.05237	-774.33331	-10.09609	200.83955	-797.24219	52.67916	171.53384	-799.44452	176.82297	181.34793	-840.47400	-38.42775	473.02634	-666.12994	-69.56207	160.49947	-876.18384	-78.95393	141.52309	-820.26660	-62.39535	692.17566	-810.97876	-31.36523	606.54321	-812.56628	-28.03969	559.06909	-720.01794	157.91339	220.83882	-563.19135	-38.89062	164.37679	-676.48029	175.55293	161.79005	-624.63342	-79.35507	158.85606	-814.17249	-71.01765	845.37799	-726.30450	72.07437	220.85912				-752.60083	15.57903	524.46521										-676.87775	53.18294	163.60680	
135	2.680	-206.82124	114.26597	1502.84387	-448.33121	281.66852	1319.74219	-788.06024	144.81233	567.43311	-748.22510	-9.06446	798.63788	-813.85052	285.04724	865.73254	-753.43793	214.91348	816.65955	-840.20593	251.76466	621.64655	-825.66864	246.73781	564.14203	-762.74158	205.76338	534.40411	-849.23059	258.41486	485.26385	-517.80591	-72.78263	142.70668				-604.51862	18.04835	169.01392	-841.90625	283.58987	732.22516	-776.37823	227.63602	200.75114	-596.48480	224.31372	174.61929	-882.63599	295.83060	144.51021	-562.82532	260.50064	166.08311	-666.37646	300.63153	158.50659	-628.76868	308.34851	161.07333	-527.91046	304.02982	146.31827	-421.83194	-61.98158	1304.14746	-953.25970	93.63780	1073.90051	-774.73529	-9.97058	200.73836	-797.43927	52.59238	171.81332	-799.66010	177.01418	181.14668	-842.25439	-38.80216	472.17618	-666.10120	-69.67377	160.43535	-876.18384	-78.95393	141.52309				-813.51276	-31.54290	605.69043	-814.84351	-27.91197	558.07294	-720.14917	158.05707	221.06390	-563.25195	-38.73425	164.37193	-676.73486	175.63757	161.73950	-624.47668	-79.41483	158.89322				-726.69171	71.85812	220.74696				-754.20093	14.93672	524.74518										-676.85144	52.95215	163.41451	
136	2.700	-198.19336	113.08724	1481.12146	-441.23611	280.78784	1303.73828	-789.25836	144.42670	568.03625	-751.84912	-10.00836	797.82202	-817.75958	283.84924	864.38507	-757.28357	214.68506	816.18518	-842.48523	251.06871	620.69702	-827.88739	246.65999	563.77704	-763.88165	205.96153	534.89398	-850.62939	258.01572	484.83789	-517.98950	-72.65875	142.46167	-822.62531	-72.40103	843.58893	-604.57556	18.03291	168.83940	-846.46460	283.57184	732.26660	-776.46594	227.74524	200.80028	-596.55017	224.29021	174.67999	-882.62708	295.73477	144.40533	-562.73169	260.39972	165.99001	-666.37646	300.63153	158.50659	-628.48645	308.27457	160.83165	-527.96198	303.84650	146.20140	-414.10892	-62.00181	1285.53809	-955.40765	93.16776	1074.46436	-774.86084	-10.21877	200.63330	-797.37280	52.51274	171.60596	-799.72864	177.01120	181.01007	-843.83795	-38.89049	471.42975	-666.14972	-69.73061	160.46840	-876.18384	-78.95393	141.52309	-827.40076	-60.86931	691.09772	-816.25781	-31.99608	605.31543	-816.85126	-28.41500	557.37427	-720.38538	158.10411	220.95247	-563.04169	-38.71362	164.06561	-676.86926	175.71298	161.84193	-624.54492	-79.40145	158.80435				-726.88123	71.86245	220.80667				-756.14050	14.47095	524.12823										-676.85144	52.95215	163.41451	
